/* XPM */
static char * coin_xpm[] = {
"40 40 389 2",
"  	c #F3D08E",
". 	c #F2CF8D",
"+ 	c #F1CE8D",
"@ 	c #F0CE8C",
"# 	c #F0CD8C",
"$ 	c #F1CE8C",
"% 	c #F5D28F",
"& 	c #FBD692",
"* 	c #FED994",
"= 	c #FEDA94",
"- 	c #FDD994",
"; 	c #FAD692",
"> 	c #F5D18F",
", 	c #A89161",
"' 	c #3B311E",
") 	c #0D0904",
"! 	c #010100",
"~ 	c #000000",
"{ 	c #080502",
"] 	c #020100",
"^ 	c #010101",
"/ 	c #0F0B05",
"( 	c #917B52",
"_ 	c #EFCD8B",
": 	c #FBD793",
"< 	c #4E422A",
"[ 	c #060402",
"} 	c #161108",
"| 	c #19130A",
"1 	c #937D55",
"2 	c #998359",
"3 	c #988259",
"4 	c #917C54",
"5 	c #605136",
"6 	c #090603",
"7 	c #7E6C47",
"8 	c #FAD793",
"9 	c #CCB178",
"0 	c #261F12",
"a 	c #625438",
"b 	c #A0895D",
"c 	c #B59B69",
"d 	c #AE9565",
"e 	c #B59B6A",
"f 	c #C7AB74",
"g 	c #C3A772",
"h 	c #AC9364",
"i 	c #D9B97E",
"j 	c #C2A671",
"k 	c #130F07",
"l 	c #272012",
"m 	c #D8BA7E",
"n 	c #F2CF8E",
"o 	c #F1CF8D",
"p 	c #EDCD8B",
"q 	c #181209",
"r 	c #302819",
"s 	c #968057",
"t 	c #CBAE77",
"u 	c #A68E61",
"v 	c #68593D",
"w 	c #453B28",
"x 	c #907B54",
"y 	c #9D865B",
"z 	c #BEA26F",
"A 	c #9F885D",
"B 	c #897550",
"C 	c #B29868",
"D 	c #AD9465",
"E 	c #CCAE77",
"F 	c #A48C5F",
"G 	c #060502",
"H 	c #C4A972",
"I 	c #D0B47A",
"J 	c #130E07",
"K 	c #17120A",
"L 	c #B69C6A",
"M 	c #C5A973",
"N 	c #B49A69",
"O 	c #5A4D35",
"P 	c #63543A",
"Q 	c #CFB37A",
"R 	c #9F895E",
"S 	c #A48F61",
"T 	c #C8AB75",
"U 	c #C8AC75",
"V 	c #C0A470",
"W 	c #AA9263",
"X 	c #736243",
"Y 	c #CDAF78",
"Z 	c #C4A873",
"` 	c #6B5C3E",
" .	c #0E0B05",
"..	c #8C7850",
"+.	c #F2D08E",
"@.	c #EFCC8B",
"#.	c #FFDE97",
"$.	c #171309",
"%.	c #19140A",
"&.	c #947F57",
"*.	c #B19867",
"=.	c #C9AC75",
"-.	c #BBA06D",
";.	c #A99364",
">.	c #C7AB75",
",.	c #584B33",
"'.	c #C0A570",
").	c #83714D",
"!.	c #7F6D4A",
"~.	c #87744F",
"{.	c #9A845A",
"].	c #A38C5F",
"^.	c #A89062",
"/.	c #D6B77D",
"(.	c #554830",
"_.	c #18130A",
":.	c #D8BA7F",
"<.	c #FFDA95",
"[.	c #403622",
"}.	c #140F08",
"|.	c #C1A571",
"1.	c #CDAF77",
"2.	c #D2B47A",
"3.	c #B09767",
"4.	c #554831",
"5.	c #796746",
"6.	c #7B6948",
"7.	c #B79D6B",
"8.	c #A58E61",
"9.	c #A38B5F",
"0.	c #7B6A48",
"a.	c #6D5D40",
"b.	c #A68F61",
"c.	c #B69E6C",
"d.	c #B89F6C",
"e.	c #9B855B",
"f.	c #D4B57B",
"g.	c #D4B57C",
"h.	c #110D07",
"i.	c #1C170C",
"j.	c #F4D08E",
"k.	c #796845",
"l.	c #A78F62",
"m.	c #917C55",
"n.	c #937E56",
"o.	c #706041",
"p.	c #BFA470",
"q.	c #826F4C",
"r.	c #84714D",
"s.	c #3C3323",
"t.	c #B99E6C",
"u.	c #AE9566",
"v.	c #CCB078",
"w.	c #85724D",
"x.	c #88744F",
"y.	c #DCBC80",
"z.	c #C4A872",
"A.	c #7A6845",
"B.	c #EFCD8C",
"C.	c #FFDD97",
"D.	c #040301",
"E.	c #080603",
"F.	c #6F5F40",
"G.	c #A99062",
"H.	c #C6AA74",
"I.	c #B29A69",
"J.	c #85714D",
"K.	c #A48C60",
"L.	c #65573B",
"M.	c #DABB7F",
"N.	c #A1895E",
"O.	c #D7B87E",
"P.	c #B89D6B",
"Q.	c #716042",
"R.	c #9A835A",
"S.	c #C9AD76",
"T.	c #7E6C49",
"U.	c #D0B27A",
"V.	c #1A150B",
"W.	c #030201",
"X.	c #B39867",
"Y.	c #937F57",
"Z.	c #A68E60",
"`.	c #927D55",
" +	c #7E6C4A",
".+	c #DEBF82",
"++	c #C6A973",
"@+	c #A48D60",
"#+	c #BDA26E",
"$+	c #B39A69",
"%+	c #C8AD76",
"&+	c #8A7650",
"*+	c #A28B5F",
"=+	c #9E8659",
"-+	c #332B1A",
";+	c #64573B",
">+	c #C4AA74",
",+	c #CAAD76",
"'+	c #DDBD81",
")+	c #6F5F41",
"!+	c #AF9666",
"~+	c #E1C385",
"{+	c #BCA06D",
"]+	c #B89E6C",
"^+	c #E2C284",
"/+	c #DBBC80",
"(+	c #B19767",
"_+	c #BA9F6D",
":+	c #A99163",
"<+	c #86734E",
"[+	c #C9AC76",
"}+	c #B39968",
"|+	c #87754F",
"1+	c #453C27",
"2+	c #231C10",
"3+	c #FFDC96",
"4+	c #736444",
"5+	c #E1C687",
"6+	c #897651",
"7+	c #B59A69",
"8+	c #CBAE76",
"9+	c #DEBE81",
"0+	c #D1B37A",
"a+	c #A18A5E",
"b+	c #E3C385",
"c+	c #E8C889",
"d+	c #C2A772",
"e+	c #C7AA74",
"f+	c #8F7A53",
"g+	c #8D7952",
"h+	c #BBA36F",
"i+	c #786847",
"j+	c #0C0904",
"k+	c #86724E",
"l+	c #CCAF77",
"m+	c #D7B97E",
"n+	c #050403",
"o+	c #A58D60",
"p+	c #B29968",
"q+	c #8F7B54",
"r+	c #AA9163",
"s+	c #9B845A",
"t+	c #907C54",
"u+	c #171109",
"v+	c #786746",
"w+	c #473D29",
"x+	c #020101",
"y+	c #211D13",
"z+	c #0F0D08",
"A+	c #0C0A07",
"B+	c #120E07",
"C+	c #D5B67C",
"D+	c #AF9767",
"E+	c #AB9263",
"F+	c #141007",
"G+	c #FFDD96",
"H+	c #CEB178",
"I+	c #968158",
"J+	c #B99F6C",
"K+	c #362E1F",
"L+	c #978258",
"M+	c #020201",
"N+	c #413726",
"O+	c #957F57",
"P+	c #8C7851",
"Q+	c #0D0A05",
"R+	c #1B160C",
"S+	c #85724E",
"T+	c #B09667",
"U+	c #BFA36F",
"V+	c #D3B47B",
"W+	c #D7B87D",
"X+	c #9D875C",
"Y+	c #63553A",
"Z+	c #9A8359",
"`+	c #B19967",
" @	c #292214",
".@	c #3D3423",
"+@	c #3F3625",
"@@	c #B89E6B",
"#@	c #B19868",
"$@	c #695A3D",
"%@	c #A78F61",
"&@	c #8B7852",
"*@	c #110D06",
"=@	c #D9BA7F",
"-@	c #CEB179",
";@	c #907C55",
">@	c #B79C6B",
",@	c #3F3521",
"'@	c #0B0804",
")@	c #DCBE81",
"!@	c #BDA16E",
"~@	c #806E4B",
"{@	c #8B7751",
"]@	c #756545",
"^@	c #322919",
"/@	c #FBD792",
"(@	c #D0B57B",
"_@	c #BCA16D",
":@	c #705F41",
"<@	c #816E4B",
"[@	c #524630",
"}@	c #998259",
"|@	c #F1D08E",
"1@	c #F4D893",
"2@	c #615338",
"3@	c #81704D",
"4@	c #BA9F6C",
"5@	c #D3B57B",
"6@	c #62553A",
"7@	c #6B5B3C",
"8@	c #A99061",
"9@	c #A99465",
"0@	c #958057",
"a@	c #A78E61",
"b@	c #CEB078",
"c@	c #C4A772",
"d@	c #D4B67C",
"e@	c #8A7651",
"f@	c #D2B47B",
"g@	c #BCA06C",
"h@	c #0F0C05",
"i@	c #1D170D",
"j@	c #7C6A48",
"k@	c #E4C385",
"l@	c #BCA16E",
"m@	c #806D4A",
"n@	c #BDA26F",
"o@	c #E6C687",
"p@	c #5D4F35",
"q@	c #272113",
"r@	c #8D7850",
"s@	c #CDB078",
"t@	c #E8C687",
"u@	c #DCBD81",
"v@	c #AF9566",
"w@	c #A28A5E",
"x@	c #221C10",
"y@	c #0C0804",
"z@	c #B79E6C",
"A@	c #83704D",
"B@	c #F4D18E",
"C@	c #EAC889",
"D@	c #B09666",
"E@	c #9C865B",
"F@	c #342B1A",
"G@	c #FEDA95",
"H@	c #D8B97E",
"I@	c #C5A873",
"J@	c #7A6847",
"K@	c #E4C586",
"L@	c #F9D692",
"M@	c #EBCB8A",
"N@	c #CEB279",
"O@	c #140F07",
"P@	c #53462E",
"Q@	c #C1A570",
"R@	c #E0BF82",
"S@	c #8C7852",
"T@	c #AA9262",
"U@	c #EDCB8A",
"V@	c #403725",
"W@	c #4C412C",
"X@	c #FFE59C",
"Y@	c #DEBE82",
"Z@	c #EDCC8B",
"`@	c #A88F61",
" #	c #1F190D",
".#	c #D0B279",
"+#	c #483C26",
"@#	c #FFDB95",
"##	c #7D6A46",
"$#	c #413622",
"%#	c #3F3522",
"&#	c #AB9264",
"*#	c #332A1A",
"=#	c #9F865B",
"-#	c #FCD893",
";#	c #D7B77D",
">#	c #786643",
",#	c #50432B",
"'#	c #2A2315",
")#	c #151008",
"!#	c #282113",
"~#	c #2D2416",
"{#	c #927C53",
"]#	c #F9D592",
"^#	c #FCD793",
"                                                                                ",
"                                                                                ",
"                                                                                ",
"                                                                                ",
"                            .   . + @ # # @ + .   .                             ",
"                      .     $ # % & * = = - ; > # $     .                       ",
"                    .   $ + - , ' ) ! ~ { ] ^ / ( - + $   .                     ",
"                .     _ : < [ ~ } | 1 2 3 4 5 6 ~ [ 7 8 _     .                 ",
"              .   . @ 9 0 ! a b c d e f g h i j h k ~ l m # .   .               ",
"            n   . o p q r s t u v w x y z A B C D E F ! G H + .   n             ",
"            . . $ I J K L M N O P Q R S T U V W X s Y Z `  ...@ +..             ",
"          .   @.#.$.%.z &.*.=.-.;.>.,.s '.).!.~.{.].^./.T (._.:.@.  .           ",
"            # <.[.}.|.1.2.3.W 4.5.6.7.8.8.9.0.a.b.c.d.e.f.g.h.i.<.#             ",
"        . . j.k.~ W j l.b 1.m.n.o.p.q.3 r.s.D t.u.v.w.x.y.z.D ~ A.  . .         ",
"          B.C.D.E.=.-.F.G.H.I.J.K.{.!.L.e M.T N.O.P.Q.R.S.T.U.V.W.C.B.          ",
"        . . X.~ A V j Y.Z.D `. +.+++h j @+#+$+J.V h -.%+&+P.1 *+~ =+o .         ",
"        + : -+;+>+,+'+)+M.x.!+~+{+n.]+^+/+(+3.3._+:+<+_+L [+}+|+1+2+; +         ",
"        # 3+q 4+/+5+6+7+W 8+u.Z y 9+0+a+a+b+c+h d+e+f+g+*+y.V h+i+j+3+#         ",
"        @.C.W.2+f k+l+7.4.e+n.:+m+d.n+o+[ G #+p+7.G.q+r+s+L L.{.t+u+C._         ",
"        B.3+D.2 v+w+r+j P.3 ^.:+M x+y+z+A+B+q.M.D C+b j D+E+l+8+f+F+G+_         ",
"        B.3+D.`.H+(+I+J+K+2 N L+O.M+N+O+P+Q+R+/.l.#+S+u g.T+U+V+n.D.C._         ",
"        _ C.~ F.a+W+].X+Y+~.0+Z+`+ @.@+@~ ~ n.@@#@I+++N o+$@%@O.&@*@C._         ",
"        # 3+M+R+#+=@-@;@d.s+7.>@!+,@K ~ '@~.)@K.!@M ~@{@E+9.{+U.]@^@3+#         ",
"        + /@0 x+(@{._@:@<@[@M }@&+t.3+@.|@1@(+V Z X+2@c.3@:+4@5@6@7@/@+         ",
"        . . 8@~ r+N f s+9@0@a@X+j =.b@9.9.j c@d@e e@z `.C p.f@(+x+g@. .         ",
"          B.C.h@i@l+d+7.j@T }+I+e+g.'+}+++k@l@l@m@(+A m.7.n@o@p@q@C.B.          ",
"        . . j.r@~ G.j }+X+j F s@~.E /+t@y.u@v@!+S+w@u e 9.0+}+! C j.. .         ",
"            # <.x@y@/.t.z@o+A@o+9.~.C+B@C@0+1.N D@,+*+E@'+g. .F@G@#             ",
"          .   # H@_.j@I@2 $+U+z J@!@K@3+L@u@H@N H@M s+,+d@R+[ M@#   .           ",
"            . . + N@O@P@z.!@Q@e+L u@k+0@g+m.B@R@C X+S@H@i.D.Q $ . .             ",
"            n   . . T@! K t+E U@C.E@w V@W@W@z X@Y@,+(+V.i.Z@o .   n             ",
"              .   . $ `@ #W.&+v@W+.#2 s s+o+R@f@*.&+W.+#@#$ .   .               ",
"                .     B./@##$#%#B n.9.h &#w@t+{@l *#=#/@#     .                 ",
"                    .   $ . -#;#8@>#,#'#'#)#!#~#{#-#. $   .                     ",
"                      .   . $ $ % ]#^#^#^#^#]#> @ $ .   .                       ",
"                            .   . + $ @ @ $ + .   .                             ",
"                                                                                ",
"                                                                                ",
"                                                                                ",
"                                                                                "};
