/* XPM */
static char * person_xpm[] = {
"40 40 183 2",
"  	c #F3D08E",
". 	c #EFCF8D",
"+ 	c #833010",
"@ 	c #812B09",
"# 	c #975934",
"$ 	c #F1D08F",
"% 	c #F2CF8D",
"& 	c #C39864",
"* 	c #F0D08E",
"= 	c #83300F",
"- 	c #EDCD8C",
"; 	c #853616",
"> 	c #F5D491",
", 	c #ECCB8B",
"' 	c #812C0B",
") 	c #E6C485",
"! 	c #822E0D",
"~ 	c #F2D290",
"{ 	c #853516",
"] 	c #965C48",
"^ 	c #FDFDFC",
"/ 	c #FFFFFF",
"( 	c #F8F6F5",
"_ 	c #E6C584",
": 	c #F7D692",
"< 	c #A0715F",
"[ 	c #F7F7F6",
"} 	c #C8AC79",
"| 	c #E6C992",
"1 	c #F5D08C",
"2 	c #F2CF8E",
"3 	c #D8BA83",
"4 	c #F4F4F4",
"5 	c #FFFFFE",
"6 	c #FEFEFE",
"7 	c #F2E4CF",
"8 	c #F5D28E",
"9 	c #F2D08E",
"0 	c #F5D18E",
"a 	c #F4D08B",
"b 	c #ECCD91",
"c 	c #F2CC85",
"d 	c #F5D18F",
"e 	c #000000",
"f 	c #EDCB8B",
"g 	c #E5C588",
"h 	c #F7D697",
"i 	c #D4B67D",
"j 	c #FEFDFD",
"k 	c #CDBD9E",
"l 	c #F5D392",
"m 	c #E8C88B",
"n 	c #F0CD8C",
"o 	c #FAD792",
"p 	c #FEFCFA",
"q 	c #96938F",
"r 	c #848484",
"s 	c #FCFCFC",
"t 	c #0C0905",
"u 	c #75736E",
"v 	c #FEFEFD",
"w 	c #F4D08C",
"x 	c #F1CE8C",
"y 	c #FED994",
"z 	c #FFDB91",
"A 	c #D5D5D4",
"B 	c #070708",
"C 	c #090909",
"D 	c #C4C4C4",
"E 	c #FDFDFD",
"F 	c #E8E8E8",
"G 	c #727373",
"H 	c #BBBBBB",
"I 	c #F3CD86",
"J 	c #F2D08F",
"K 	c #F1CE8D",
"L 	c #FCD893",
"M 	c #A8A8A8",
"N 	c #F7F7F7",
"O 	c #F5F5F5",
"P 	c #595959",
"Q 	c #222221",
"R 	c #F2CD86",
"S 	c #F3D08F",
"T 	c #F1CF8D",
"U 	c #FAD692",
"V 	c #FEFDFA",
"W 	c #FAFAFA",
"X 	c #F4CF88",
"Y 	c #F8D491",
"Z 	c #E3DBCD",
"` 	c #C1C0BF",
" .	c #F0F0F0",
"..	c #1B1B1B",
"+.	c #040404",
"@.	c #EFE8DC",
"#.	c #E6C68B",
"$.	c #F5D18D",
"%.	c #F6D28F",
"&.	c #DBBB80",
"*.	c #DADBDB",
"=.	c #F7D38E",
"-.	c #F3D08D",
";.	c #EFE8DB",
">.	c #E3CEA7",
",.	c #171718",
"'.	c #C6A76F",
").	c #A38D64",
"!.	c #A3A3A3",
"~.	c #373736",
"{.	c #FCFEFF",
"].	c #C8C6C2",
"^.	c #E0E0E0",
"/.	c #888888",
"(.	c #A4A4A3",
"_.	c #F1F2F6",
":.	c #F7D390",
"<.	c #0E0D0C",
"[.	c #D2D2D2",
"}.	c #FAF9F8",
"|.	c #737577",
"1.	c #F2CE88",
"2.	c #F8EDDA",
"3.	c #F1F1F1",
"4.	c #FBFBFB",
"5.	c #EED5AC",
"6.	c #0E0F0F",
"7.	c #F4D18F",
"8.	c #F0CA83",
"9.	c #D2D2D3",
"0.	c #EDD7AD",
"a.	c #F2CD89",
"b.	c #F9D694",
"c.	c #545049",
"d.	c #BCBAB6",
"e.	c #B99E6B",
"f.	c #F1CB85",
"g.	c #020201",
"h.	c #F9D690",
"i.	c #F4D08E",
"j.	c #F0CE8D",
"k.	c #FFFEFE",
"l.	c #F3D088",
"m.	c #F4D290",
"n.	c #F3CF8C",
"o.	c #F6E0BC",
"p.	c #CDCBC5",
"q.	c #F5D28F",
"r.	c #FCFBF8",
"s.	c #E6C483",
"t.	c #FEFEFF",
"u.	c #FDFBF9",
"v.	c #F5D18C",
"w.	c #F1D091",
"x.	c #FEFDFC",
"y.	c #DCC9A7",
"z.	c #FDFAF4",
"A.	c #DDBD80",
"B.	c #F0CF90",
"C.	c #F9F5F0",
"D.	c #EECC8A",
"E.	c #F2CE8C",
"F.	c #EBCA8C",
"G.	c #E8CFA1",
"H.	c #E1C288",
"I.	c #ECDDC5",
"J.	c #F6D28E",
"K.	c #FBFAF6",
"L.	c #F7E4C2",
"M.	c #746241",
"N.	c #020202",
"O.	c #E4C387",
"P.	c #E7C688",
"Q.	c #1D180E",
"R.	c #E4C385",
"S.	c #C5A873",
"T.	c #20190E",
"U.	c #030302",
"V.	c #030201",
"W.	c #6E5E40",
"X.	c #020101",
"Y.	c #F0CE8C",
"Z.	c #988158",
"                                . + @ @ # $     %                               ",
"                          %     @ @ @ @ @ &                                     ",
"                          %   * @ @ @ @ @ = -     %                             ",
"                          %     @ @ @ @ @ @ ;                                   ",
"                              > @ @ @ @ @ @ @ ,     %                           ",
"                                @ @ @ @ @ @ @ '                                 ",
"                                @ @ @ @ @ @ @ @ @     %                         ",
"                                ) @ @ @ @ @ @ @ !                               ",
"                            %   ~ @ @ @ { ] ^ / ( _                             ",
"                            %   : @ @ < [ / / / / }                             ",
"                %   % %   %       @ @ / / / / / / | 1                           ",
"                  %     %   2     3 4 / / / 5 / 6 7 8 2   %   9                 ",
"                              0 a b / / / 6 / / / / c d     %                   ",
"                    e       f g h i / / j 6 6 / / k l m       %                 ",
"                n o e     p / / q e r / / 6 s / 6 t u v / / w 2                 ",
"                x y e e z / / A B e C D / E s F G e e H / / I J                 ",
"                K L e e z v / e e e e M N 6 O P e e e Q / / R S                 ",
"                T U e e   V / e e e e / / W / 6 e e e e / 6 X J                 ",
"                % Y e e     Z `  ...+./ / 6 / / e e e e @.#.$.2                 ",
"                % %.e e     &./ *.e e / E / / / e e e e =.% 2 -.                ",
"                %     e     ;./ e e e / / / / / e e e e U   %                   ",
"                %     e     / / e e e / / / / / e e e e =.T %                   ",
"                %     e   >./ / e e e / / / / / ,.e e e '.2 %                   ",
"                2     e )./ / / e e !./ / / / / e ~.{.e '.2 %                   ",
"                  2   e ]./ / e e e ^./ / / / / /.(._.e     %                   ",
"                % K :.e E / / e e <./ / / / 6 / [.}.|.e     %                   ",
"                2 1.2.3.4./ 5.e e 6./ / / / 6 / / / e e 7.                      ",
"                S 8./ / 9.0.a.b.e c./ / 6 / 6 / / d.e e.                        ",
"                J f./ F g.h.  i.j.v / / 6 / 6 v / k.l.m.                        ",
"                2 n.o.p.e q.  2 6 / / / / / 6 6 / / r.I S % 2                   ",
"                -.%   s.e     / / / t.6 / 6 / 6 / / / u.v.2                     ",
"                9 %     e w./ / / 6 / 6 6 6 / / / / / / x.7.%                   ",
"                  %     e y./ / / / / / / / / / / / / / z.7.%                   ",
"                  %     e A.B./ E / / / / / / / / / C.D.                        ",
"                  %     e n   E.F./ /   G.H.E / I.        -.2                   ",
"                        e     S J.5 /     -.K./ L.    2 -.2                     ",
"                        e M.    e N.e O.  P.e e Q.R.                            ",
"                        S.e   T.e e e e   e e e e e     %                       ",
"                    n     e   e e U.V.e W.e e X.e e     %                       ",
"                    Y.    e   e e e e e Z.e e e e e 7.  %                       "};
