/* XPM */
static char * exit_xpm[] = {
"40 40 127 2",
"  	c #F3D08E",
". 	c #EAC889",
"+ 	c #302817",
"@ 	c #010101",
"# 	c #000000",
"$ 	c #080603",
"% 	c #A1895C",
"& 	c #DEBE81",
"* 	c #E9C888",
"= 	c #A68D5F",
"- 	c #140F07",
"; 	c #8C774F",
"> 	c #DFBF82",
", 	c #BEA26E",
"' 	c #3C321F",
") 	c #0F0B05",
"! 	c #A88F61",
"~ 	c #EFCC8B",
"{ 	c #86724C",
"] 	c #68583A",
"^ 	c #E1C183",
"/ 	c #E1C083",
"( 	c #5C4E32",
"_ 	c #D5B67C",
": 	c #493D27",
"< 	c #2F2717",
"[ 	c #D4B67B",
"} 	c #E5C486",
"| 	c #4F432B",
"1 	c #010000",
"2 	c #070201",
"3 	c #050200",
"4 	c #352C1B",
"5 	c #DABA7F",
"6 	c #6C5C3C",
"7 	c #2E1505",
"8 	c #4E270E",
"9 	c #532A0F",
"0 	c #643414",
"a 	c #6E3A17",
"b 	c #633414",
"c 	c #603213",
"d 	c #542B10",
"e 	c #4F280E",
"f 	c #311706",
"g 	c #3E3420",
"h 	c #A38B5E",
"i 	c #42210A",
"j 	c #552C10",
"k 	c #693716",
"l 	c #643515",
"m 	c #46230B",
"n 	c #060200",
"o 	c #8F7951",
"p 	c #D8B97E",
"q 	c #200D03",
"r 	c #5E3113",
"s 	c #623313",
"t 	c #5A2F11",
"u 	c #653514",
"v 	c #1F0D03",
"w 	c #CDAF77",
"x 	c #3D3320",
"y 	c #44210B",
"z 	c #613313",
"A 	c #673615",
"B 	c #5D3112",
"C 	c #47230C",
"D 	c #372C1C",
"E 	c #F1CF8D",
"F 	c #D1B279",
"G 	c #5F3113",
"H 	c #49250C",
"I 	c #C7AA73",
"J 	c #261F12",
"K 	c #140702",
"L 	c #6D3A17",
"M 	c #210E03",
"N 	c #100501",
"O 	c #572D11",
"P 	c #160802",
"Q 	c #49240C",
"R 	c #582E11",
"S 	c #4D270D",
"T 	c #1C0B02",
"U 	c #281104",
"V 	c #331806",
"W 	c #3B1D08",
"X 	c #361A07",
"Y 	c #41200A",
"Z 	c #321706",
"` 	c #381B07",
" .	c #020100",
"..	c #3F1F0A",
"+.	c #653515",
"@.	c #47240C",
"#.	c #5E3112",
"$.	c #562C10",
"%.	c #6C3916",
"&.	c #6B3816",
"*.	c #50290E",
"=.	c #683615",
"-.	c #552B10",
";.	c #030100",
">.	c #6A3816",
",.	c #401F0A",
"'.	c #1B0A02",
").	c #3B1D09",
"!.	c #572D10",
"~.	c #613213",
"{.	c #2A1204",
"].	c #160702",
"^.	c #1E0B02",
"/.	c #44220B",
"(.	c #47230B",
"_.	c #45220B",
":.	c #060201",
"<.	c #5B2F11",
"[.	c #220E03",
"}.	c #5D3012",
"|.	c #190902",
"1.	c #010100",
"2.	c #3A1C08",
"3.	c #683715",
"4.	c #592E11",
"5.	c #643514",
"6.	c #3D1E09",
"                      . + @ # # # # # # # # # # # # $ % &                       ",
"                  * = - # # # # # # # # # # # # # # # # # ; >                   ",
"                , ' # # # # # # # # # # # # # # # # # # # # ) ! ~               ",
"            * { # # # # # # # # # # # # # # # # # # # # # # # # ] ^             ",
"          / ( # # # # # # # # # # # # # # # # # # # # # # # # # # ' _           ",
"        & : # # # # # # # # # # # # # # # # # # # # # # # # # # # # < [         ",
"      } | # # # # # # # # # # # # # 1 2 3 1 # # # # # # # # # # # # # 4 5       ",
"    ~ 6 # # # # # # # # # # 7 8 9 0 a b # a c d e f # # # # # # # # # # g .     ",
"    h # # # # # # # # 1 i j a a b k a b # a l b a a e m n # # # # # # # # o     ",
"  p 1 # # # # # # # q r a s a a b k a b # a l b a a t a u v # # # # # # # # w   ",
"  x # # # # # # # y z A a s a a b k a b # a l b a a t a a B C # # # # # # # D E ",
"F # # # # # # # m a b A a s a a b k a b # a l b a a t a a G a H # # # # # # # I ",
"J # # # # # # K L a b A a s a a b k a b # a l b a a t a a G a a M # # # # # # $ ",
"@ # # # # # N e a a b A a s a a b k a b # a l b a a t a a G a a O P # # # # # # ",
"# # # # # # Q R a a b A a s a a b k a b # a l b a a t a a G a a B S # # # # # # ",
"# # # # # # b R a a b A a s a a b k a b # a l b a a t a a G a a B A # # # # # # ",
"# # # # # T a R a a b A a s a a b k a b # a l b a a t a a G a a B a U # # # # # ",
"# # # # # V a R a a b A a s a a b k a b # a l b a a t a a G a a B a W # # # # # ",
"# # # # # X a R a a b A a s a a b k a b # a l b a a t a a G a a B a Y # # # # # ",
"# # # # # Z a R a a b A a s a a b k a b # a l b a a t a a G a a B a ` # # # # # ",
"# # # # # #  ...+.a b A a s a a b k a b # a l b a a t a a G L u @. .# # # # # # ",
"# # # # # # # # # # #.A a s a a b k a b # a l b a a t a a $.# # # # # # # # # # ",
"# # # # # # # ..b %.b A a s a a b k a b # a l b a a t a a G &.b @.# # # # # # # ",
"# # # # # # # @.a a b A a s a a b k a b # a l b a a t a a G a a *.# # # # # # # ",
"# # # # # # # @.a a b A a s a a b k a b # a l b a a t a a G a a *.# # # # # # # ",
"# # # # # # # @.a a b A a s a a b k a b # a l b a a t a a G a a *.# # # # # # # ",
"# # # # # # # @.a a b A a s a a b k a b # a l b a a t a a G a a *.# # # # # # # ",
"# # # # # # # @.a a b A a s A a b +.0 b # =.b b a z t a a G a a *.# # # # # # # ",
"# # # # # # # @.a a b A a -.;.>.b ,.'.b # N ).b A # !.a a G a a *.# # # # # # # ",
"# # # # # # # @.a a b A a ~.;.{.b ].^.b # /.# (._.:.<.a a G a a *.# # # # # # # ",
"# # # # # # # @.a a b A a s Q # # [.}.b # A |.# 1.2.t a a G a a *.# # # # # # # ",
"# # # # # # # @.a a b A a s a 3.4.k a b # a 5.4.3.a t a a G a a *.# # # # # # # ",
"# # # # # # # @.a a b A a s a a b k a b # a l b a a t a a G a a *.# # # # # # # ",
"# # # # # # # @.a a b A a s a a b k a b # a l b a a t a a G a a *.# # # # # # # ",
"# # # # # # # @.a a b A a s a a b k a b # a l b a a t a a G a a *.# # # # # # # ",
"# # # # # # # @.a a b A a s a a b k a b # a l b a a t a a G a a *.# # # # # # # ",
"# # # # # # # X $.c b A a s a a b k a b # a l b a a t a a G G $.6.# # # # # # # ",
"# # # # # # # # # # }.A a s a a b k a b # a l b a a t a a $.# # # # # # # # # # ",
"# # # # # # # @.a a b A a s a a b k a b # a l b a a t a a G a a *.# # # # # # # ",
"# # # # # # # @.a a b A a s a a b k a b # a 5.b a a t a a G a a *.# # # # # # # "};
