/* XPM */
static char * left_xpm[] = {
"40 40 154 2",
"  	c #F4D18E",
". 	c #8A5635",
"+ 	c #7F4326",
"@ 	c #7F4225",
"# 	c #8D6541",
"$ 	c #7E4225",
"% 	c #804527",
"& 	c #804528",
"* 	c #81482A",
"= 	c #804F31",
"- 	c #834B2C",
"; 	c #B79564",
"> 	c #A28D78",
", 	c #FBFAFA",
"' 	c #FEFEFE",
") 	c #E1DEDD",
"! 	c #B9A8A4",
"~ 	c #CCAB74",
"{ 	c #FAF9F9",
"] 	c #FFFFFF",
"^ 	c #F9F8F8",
"/ 	c #7C3D1C",
"( 	c #FDFDFC",
"_ 	c #FAFAFA",
": 	c #F3D5A5",
"< 	c #FCFBFB",
"[ 	c #F7F3EB",
"} 	c #FCFBFA",
"| 	c #FCF3E7",
"1 	c #F4EFE7",
"2 	c #060503",
"3 	c #8A8987",
"4 	c #010101",
"5 	c #FBFAF9",
"6 	c #241C10",
"7 	c #FDFCFB",
"8 	c #F5F4F4",
"9 	c #544730",
"0 	c #000000",
"a 	c #FCFCFC",
"b 	c #D7B87D",
"c 	c #0F0B05",
"d 	c #CFC3B0",
"e 	c #FBFBFB",
"f 	c #F7F7F7",
"g 	c #EACA8E",
"h 	c #50432B",
"i 	c #F9F9F9",
"j 	c #17120C",
"k 	c #302F2F",
"l 	c #323232",
"m 	c #131313",
"n 	c #0D0D0D",
"o 	c #0B0906",
"p 	c #0C0904",
"q 	c #F6F6F6",
"r 	c #3D331F",
"s 	c #454545",
"t 	c #CBCBCB",
"u 	c #FDFDFD",
"v 	c #7D7C7B",
"w 	c #F9F9F8",
"x 	c #FDFCFC",
"y 	c #272013",
"z 	c #080705",
"A 	c #100C04",
"B 	c #392F1D",
"C 	c #312818",
"D 	c #F8F8F8",
"E 	c #F5F5F5",
"F 	c #0D0A05",
"G 	c #090603",
"H 	c #DDDDDD",
"I 	c #212121",
"J 	c #E3E3E3",
"K 	c #030303",
"L 	c #090702",
"M 	c #EAE4DC",
"N 	c #0E0A04",
"O 	c #DDD8D1",
"P 	c #E9E9E9",
"Q 	c #C1C1C1",
"R 	c #3A3A3A",
"S 	c #EDEDED",
"T 	c #0E0E0E",
"U 	c #0B0803",
"V 	c #AAAAAA",
"W 	c #E6E6E6",
"X 	c #060606",
"Y 	c #020202",
"Z 	c #010100",
"` 	c #FEFCFB",
" .	c #FCFCFB",
"..	c #D7CDBF",
"+.	c #E8E8E8",
"@.	c #0B0B0B",
"#.	c #FEFDFB",
"$.	c #ECCB8C",
"%.	c #F1ECE6",
"&.	c #E4E4E4",
"*.	c #DEDAD7",
"=.	c #201E1A",
"-.	c #F1CF8D",
";.	c #000001",
">.	c #261F13",
",.	c #0B0703",
"'.	c #C7B291",
").	c #9F885C",
"!.	c #090703",
"~.	c #A8A8A8",
"{.	c #FCFAF6",
"].	c #020201",
"^.	c #2B2B2B",
"/.	c #FDFAF6",
"(.	c #E7DAC5",
"_.	c #B4B4B4",
":.	c #F0DEC0",
"<.	c #F1D6A7",
"[.	c #313131",
"}.	c #FBEDDA",
"|.	c #FEFCF8",
"1.	c #FEFEFD",
"2.	c #191919",
"3.	c #FCFCFA",
"4.	c #DDCAAD",
"5.	c #484032",
"6.	c #0F0F0F",
"7.	c #3C3C3C",
"8.	c #111111",
"9.	c #CECFCF",
"0.	c #FBFAF8",
"a.	c #E4D9C7",
"b.	c #110D08",
"c.	c #010102",
"d.	c #37393C",
"e.	c #DDD7CE",
"f.	c #E8D4B3",
"g.	c #151008",
"h.	c #020101",
"i.	c #101010",
"j.	c #A49C90",
"k.	c #55482E",
"l.	c #030201",
"m.	c #120D06",
"n.	c #574A30",
"o.	c #BFA36E",
"p.	c #1C160B",
"q.	c #5F4F34",
"r.	c #1C170C",
"s.	c #050301",
"t.	c #A38C5D",
"u.	c #4D4129",
"v.	c #4E4129",
"w.	c #4E412A",
"                                        . + + @ #                               ",
"                                        + + + + $ %                             ",
"                                      & + + + + + *                             ",
"                                      + + + + + +                               ",
"                                    & + + + + + =                               ",
"                                    + + + + + + -                               ",
"                                  . + + + + + + ;                               ",
"                                  > , ' ) ! + @ ~                               ",
"                                  { ] ] ] ] ^ /                                 ",
"                                  ( ] ] ] ] ] _                                 ",
"                                : ] ] ] ] ] ] <                                 ",
"                                [ ] ] ] ] ] ] }     | ' 1                       ",
"                    2             ( ] ] ] ] ] 3 4 _ ] ] ] 5                     ",
"                    6             7 ] ] ] ] 8 9 0 a ] ] ] ]                     ",
"                    b c             d a e f g h 0 i ] ] ] ]                     ",
"                      j             k l m n o p 0 q ] ] ] a                     ",
"                      0           r s t ] u v 4 0 0 w u x                       ",
"                      y           z e ] ] ] ' A 0 0 B                           ",
"                        C         D ] ] E ] ] F 0 0 G                           ",
"                        4         ] ] ] H ] ' I 0 0 c                           ",
"                        0       ( ] ] J ' ] ] K 0 0 c                           ",
"                        L     M ] ] H E ] ] ] 4 0 0 c                           ",
"                        N 4 O ] ] P Q R S ' ] T 0 0 U                           ",
"                          V u ] a f ] W 4 X D Y 0 0 Z                           ",
"                        ` ] ]  ...] ] ] ] +.@.0 0 0 0                           ",
"                        #.] u $.%.] ] ] ] ] ] &.0 0 0                           ",
"                          *.=.-.u ] ] ] ] ] ] ] 0 ;.>.                          ",
"                            ,.'.] ] ] ] ] ] ] ] ] ).                            ",
"                            !.~.] ] ] ] ] ] ] ] ] {.                            ",
"                            ].^.] ] ] ] ] ] ] ] ] ] /.                          ",
"                          (._.4 E ] ] ] ] ] ] ] ] ] ] :.                        ",
"                        <.' ] [.E ] ] ] ] ] ] ] ] ] ] ' ] }.                    ",
"                        |.1.a @.2.] ] ] ] ] ] ] ] ] ] ] 3.                      ",
"                          4.5.6.7.E ] ' ] ] ] ] ] ] ]                           ",
"                            0 0 8.9.        0.] ] a.                            ",
"                        b.0 c.c.c.d.          e.' f.                            ",
"                        g.G 0 0 c.0         h.0 i.j.                            ",
"                          k.l.m.n.y       0 0 ;.0 0 o.                          ",
"                            p.q.        r.0 0 0 0 0 s.                          ",
"                                        t.u.u.v.u.u.w.                          "};
