/* XPM */
static char * right_xpm[] = {
"40 40 154 2",
"  	c #F4D18E",
". 	c #8D6541",
"+ 	c #7F4225",
"@ 	c #7F4326",
"# 	c #8A5635",
"$ 	c #804527",
"% 	c #7E4225",
"& 	c #81482A",
"* 	c #804528",
"= 	c #804F31",
"- 	c #834B2C",
"; 	c #B79564",
"> 	c #CCAB74",
", 	c #B9A8A4",
"' 	c #E1DEDD",
") 	c #FEFEFE",
"! 	c #FBFAFA",
"~ 	c #A28D78",
"{ 	c #7C3D1C",
"] 	c #F9F8F8",
"^ 	c #FFFFFF",
"/ 	c #FAF9F9",
"( 	c #FAFAFA",
"_ 	c #FDFDFC",
": 	c #FCFBFB",
"< 	c #F3D5A5",
"[ 	c #F4EFE7",
"} 	c #FCF3E7",
"| 	c #FCFBFA",
"1 	c #F7F3EB",
"2 	c #FBFAF9",
"3 	c #010101",
"4 	c #8A8987",
"5 	c #060503",
"6 	c #FCFCFC",
"7 	c #000000",
"8 	c #544730",
"9 	c #F5F4F4",
"0 	c #FDFCFB",
"a 	c #241C10",
"b 	c #F9F9F9",
"c 	c #50432B",
"d 	c #EACA8E",
"e 	c #F7F7F7",
"f 	c #FBFBFB",
"g 	c #CFC3B0",
"h 	c #0F0B05",
"i 	c #D7B87D",
"j 	c #F6F6F6",
"k 	c #0C0904",
"l 	c #0B0906",
"m 	c #0D0D0D",
"n 	c #131313",
"o 	c #323232",
"p 	c #302F2F",
"q 	c #17120C",
"r 	c #FDFCFC",
"s 	c #FDFDFD",
"t 	c #F9F9F8",
"u 	c #7D7C7B",
"v 	c #CBCBCB",
"w 	c #454545",
"x 	c #3D331F",
"y 	c #392F1D",
"z 	c #100C04",
"A 	c #080705",
"B 	c #272013",
"C 	c #090603",
"D 	c #0D0A05",
"E 	c #F5F5F5",
"F 	c #F8F8F8",
"G 	c #312818",
"H 	c #212121",
"I 	c #DDDDDD",
"J 	c #030303",
"K 	c #E3E3E3",
"L 	c #EAE4DC",
"M 	c #090702",
"N 	c #0B0803",
"O 	c #0E0E0E",
"P 	c #EDEDED",
"Q 	c #3A3A3A",
"R 	c #C1C1C1",
"S 	c #E9E9E9",
"T 	c #DDD8D1",
"U 	c #0E0A04",
"V 	c #010100",
"W 	c #020202",
"X 	c #060606",
"Y 	c #E6E6E6",
"Z 	c #AAAAAA",
"` 	c #0B0B0B",
" .	c #E8E8E8",
"..	c #D7CDBF",
"+.	c #FCFCFB",
"@.	c #FEFCFB",
"#.	c #E4E4E4",
"$.	c #F1ECE6",
"%.	c #ECCB8C",
"&.	c #FEFDFB",
"*.	c #261F13",
"=.	c #000001",
"-.	c #F1CF8D",
";.	c #201E1A",
">.	c #DEDAD7",
",.	c #9F885C",
"'.	c #C7B291",
").	c #0B0703",
"!.	c #FCFAF6",
"~.	c #A8A8A8",
"{.	c #090703",
"].	c #FDFAF6",
"^.	c #2B2B2B",
"/.	c #020201",
"(.	c #F0DEC0",
"_.	c #B4B4B4",
":.	c #E7DAC5",
"<.	c #FBEDDA",
"[.	c #313131",
"}.	c #F1D6A7",
"|.	c #FCFCFA",
"1.	c #191919",
"2.	c #FEFEFD",
"3.	c #FEFCF8",
"4.	c #3C3C3C",
"5.	c #0F0F0F",
"6.	c #484032",
"7.	c #DDCAAD",
"8.	c #E4D9C7",
"9.	c #FBFAF8",
"0.	c #CECFCF",
"a.	c #111111",
"b.	c #E8D4B3",
"c.	c #DDD7CE",
"d.	c #37393C",
"e.	c #010102",
"f.	c #110D08",
"g.	c #A49C90",
"h.	c #101010",
"i.	c #020101",
"j.	c #151008",
"k.	c #BFA36E",
"l.	c #574A30",
"m.	c #120D06",
"n.	c #030201",
"o.	c #55482E",
"p.	c #050301",
"q.	c #1C170C",
"r.	c #5F4F34",
"s.	c #1C160B",
"t.	c #4E412A",
"u.	c #4D4129",
"v.	c #4E4129",
"w.	c #A38C5D",
"                              . + @ @ #                                         ",
"                            $ % @ @ @ @                                         ",
"                            & @ @ @ @ @ *                                       ",
"                              @ @ @ @ @ @                                       ",
"                              = @ @ @ @ @ *                                     ",
"                              - @ @ @ @ @ @                                     ",
"                              ; @ @ @ @ @ @ #                                   ",
"                              > + @ , ' ) ! ~                                   ",
"                                { ] ^ ^ ^ ^ /                                   ",
"                                ( ^ ^ ^ ^ ^ _                                   ",
"                                : ^ ^ ^ ^ ^ ^ <                                 ",
"                      [ ) }     | ^ ^ ^ ^ ^ ^ 1                                 ",
"                    2 ^ ^ ^ ( 3 4 ^ ^ ^ ^ ^ _             5                     ",
"                    ^ ^ ^ ^ 6 7 8 9 ^ ^ ^ ^ 0             a                     ",
"                    ^ ^ ^ ^ b 7 c d e f 6 g             h i                     ",
"                    6 ^ ^ ^ j 7 k l m n o p             q                       ",
"                      r s t 7 7 3 u s ^ v w x           7                       ",
"                          y 7 7 z ) ^ ^ ^ f A           B                       ",
"                          C 7 7 D ^ ^ E ^ ^ F         G                         ",
"                          h 7 7 H ) ^ I ^ ^ ^         3                         ",
"                          h 7 7 J ^ ^ ) K ^ ^ _       7                         ",
"                          h 7 7 3 ^ ^ ^ E I ^ ^ L     M                         ",
"                          N 7 7 O ^ ) P Q R S ^ ^ T 3 U                         ",
"                          V 7 7 W F X 3 Y ^ e 6 ^ s Z                           ",
"                          7 7 7 7 `  .^ ^ ^ ^ ..+.^ ^ @.                        ",
"                          7 7 7 #.^ ^ ^ ^ ^ ^ $.%.s ^ &.                        ",
"                          *.=.7 ^ ^ ^ ^ ^ ^ ^ s -.;.>.                          ",
"                            ,.^ ^ ^ ^ ^ ^ ^ ^ ^ '.).                            ",
"                            !.^ ^ ^ ^ ^ ^ ^ ^ ^ ~.{.                            ",
"                          ].^ ^ ^ ^ ^ ^ ^ ^ ^ ^ ^./.                            ",
"                        (.^ ^ ^ ^ ^ ^ ^ ^ ^ ^ E 3 _.:.                          ",
"                    <.^ ) ^ ^ ^ ^ ^ ^ ^ ^ ^ ^ E [.^ ) }.                        ",
"                      |.^ ^ ^ ^ ^ ^ ^ ^ ^ ^ ^ 1.` 6 2.3.                        ",
"                          ^ ^ ^ ^ ^ ^ ^ ) ^ E 4.5.6.7.                          ",
"                            8.^ ^ 9.        0.a.7 7                             ",
"                            b.) c.          d.e.e.e.7 f.                        ",
"                            g.h.7 i.        7 e.7 7 C j.                        ",
"                          k.7 7 =.7 7       B l.m.n.o.                          ",
"                          p.7 7 7 7 7 q.        r.s.                            ",
"                          t.u.u.v.u.u.w.                                        "};
