/* XPM */
static char * skull_xpm[] = {
"40 40 29 1",
" 	c #F3D08E",
".	c #F2D08E",
"+	c #F4D6A0",
"@	c #F9E8CD",
"#	c #FCF4E9",
"$	c #FEFCF9",
"%	c #FFFFFF",
"&	c #F1CE8D",
"*	c #F9E7CB",
"=	c #FEFBF6",
"-	c #F4D399",
";	c #FAEDD9",
">	c #FAEBD6",
",	c #F7E2C0",
"'	c #FCF6EC",
")	c #F7E0BA",
"!	c #FAEDDB",
"~	c #FDF7EF",
"{	c #FEFDFB",
"]	c #DEDEDE",
"^	c #8E8E8E",
"/	c #0D0D0D",
"(	c #000000",
"_	c #7E7E7E",
":	c #FBF0E1",
"<	c #F7E3C2",
"[	c #F7E0BC",
"}	c #F8E4C5",
"|	c #F5DAAD",
"                                        ",
"                                        ",
"                                        ",
"                                        ",
"                                        ",
"                                  ..    ",
"                                        ",
"                +@#$%$#@+           &   ",
"               *=%%%%%%%=*              ",
"             -;%%%%%%%%%%%;-            ",
"             >%%%%%%%%%%%%%>          & ",
"            ,%%%%%%%%%%%%%%%,           ",
"            '%%%%%%%%%%%%%%%'           ",
"           )%%%%%%%%%%%%%%%%%)          ",
"           !%%%%%%%%%%%%%%%%%!          ",
"           ~%%%%%%%%%%%%%%%%%~          ",
"           {%%%%%%%%%%%%%%%%%{          ",
"           %%%%%%%%%%%%%%%%%%%          ",
"           {%%%]^/^]%%]^/^]%%{          ",
"           ~%%%^(((^%%^(((^%%~          ",
"           !%%%/(((/%%/(((/%%!          ",
"           )%%%^(((^%%^(((^%%)          ",
"            '%%]^/^]%%]^/^]%'           ",
"            ,%%%%%%%%%%%%%%%,           ",
"             >%%%%%_%_%%%%%>            ",
"             -{%%%%/%/%%%%{-            ",
"              %%%%%_%_%%%%%             ",
"              %%%%%%%%%%%%%             ",
"              %%%%%%%%%%%%%             ",
"              :%(((((((((%:             ",
"              <%%%%%%%%%%%<             ",
"               %%%%%%%%%%%              ",
"               [%%%%%%%%%[              ",
"                }%%%%%%%}               ",
"                 |!%%%!|                ",
"                                        ",
"                                        ",
"                                        ",
"                                        ",
"                                        "};
