/* XPM */
static char * back_xpm[] = {
"40 40 125 2",
"  	c #F3D08E",
". 	c #C49B67",
"+ 	c #914422",
"@ 	c #8F401E",
"# 	c #904C2A",
"$ 	c #944927",
"% 	c #90401E",
"& 	c #A8774D",
"* 	c #90411F",
"= 	c #F1CE8D",
"- 	c #9F613B",
"; 	c #9A5C37",
"> 	c #F1CE8C",
", 	c #F0CD8B",
"' 	c #8C3E1D",
") 	c #914523",
"! 	c #914321",
"~ 	c #924725",
"{ 	c #EDCA89",
"] 	c #8F3F1E",
"^ 	c #F0CD8C",
"/ 	c #9D6F64",
"( 	c #DDC194",
"_ 	c #8E3F1D",
": 	c #B59D98",
"< 	c #F5F5F4",
"[ 	c #EACE9F",
"} 	c #BBA396",
"| 	c #BBA29D",
"1 	c #C2ABA7",
"2 	c #CBBDBB",
"3 	c #FCFCFC",
"4 	c #FFFFFF",
"5 	c #E9D0A7",
"6 	c #EDE8E5",
"7 	c #FFFEFE",
"8 	c #FCFBF9",
"9 	c #292113",
"0 	c #F2CF8D",
"a 	c #FDFBF8",
"b 	c #FFFFFE",
"c 	c #EBDBC3",
"d 	c #312818",
"e 	c #F0CE91",
"f 	c #FDFDFB",
"g 	c #EACA90",
"h 	c #362D1B",
"i 	c #322A19",
"j 	c #F3E7D4",
"k 	c #FEFEFE",
"l 	c #EAD9BF",
"m 	c #EBC989",
"n 	c #2A2314",
"o 	c #F1D5A3",
"p 	c #FCFBFA",
"q 	c #EBDDC7",
"r 	c #F1CF90",
"s 	c #030201",
"t 	c #F1D095",
"u 	c #000000",
"v 	c #231C10",
"w 	c #F2CF8F",
"x 	c #201A0E",
"y 	c #F2D39B",
"z 	c #282113",
"A 	c #F2CF8E",
"B 	c #FDFDFD",
"C 	c #302818",
"D 	c #F1CF8D",
"E 	c #F3D08F",
"F 	c #FEFCFB",
"G 	c #352C1A",
"H 	c #EFCD8C",
"I 	c #F0CE8D",
"J 	c #F3F0ED",
"K 	c #FEFEFC",
"L 	c #F4D295",
"M 	c #C3A772",
"N 	c #E9DDCA",
"O 	c #FDFCFB",
"P 	c #F7E1BD",
"Q 	c #292827",
"R 	c #EACE9C",
"S 	c #EAD1A5",
"T 	c #EBCB8E",
"U 	c #F6F1EB",
"V 	c #F0E5D5",
"W 	c #FEFDFC",
"X 	c #F2E8D9",
"Y 	c #F0CE8C",
"Z 	c #FEFEFD",
"` 	c #FDFCFC",
" .	c #E9CE9E",
"..	c #EACC95",
"+.	c #332A19",
"@.	c #EFCE90",
"#.	c #221B0F",
"$.	c #F8F5F0",
"%.	c #F4EDE3",
"&.	c #FEFCFA",
"*.	c #1F1A12",
"=.	c #FDFBFA",
"-.	c #E9CEA0",
";.	c #FDF6EE",
">.	c #F7E3C2",
",.	c #20190E",
"'.	c #EECC8C",
").	c #F2D6A4",
"!.	c #2F2617",
"~.	c #161108",
"{.	c #55492E",
"].	c #F2CF90",
"^.	c #F9F9F9",
"/.	c #D7B87D",
"(.	c #EFCC8B",
"_.	c #261F12",
":.	c #EDCA8A",
"<.	c #040301",
"[.	c #211B0E",
"}.	c #ECCA8A",
"|.	c #020201",
"1.	c #080502",
"2.	c #060502",
"3.	c #030301",
"4.	c #040302",
"                                  . + @ #                                       ",
"                                $ % % % % &                                     ",
"                                * % % % % @ =                                   ",
"                                - % % % % % ;                                   ",
"                                > % % % % % % ,                                 ",
"                                  ' % % % % % )                                 ",
"                                  ! % % % % % @ =                               ",
"                                  ~ % % % % % % ~                               ",
"                                  { % % % % % % ] ^                             ",
"                                    % % % % % % / (                             ",
"                                    _ % % % ] : < [                             ",
"                                    } | 1 2 3 4 4 5                             ",
"                                    6 7 4 4 4 4 4 8                             ",
"                    9 0             a b 4 4 4 4 4 c                             ",
"                    d >             e f b 4 4 4 3 g                             ",
"                    h i               j 4 4 4 k l                               ",
"                    m n               o k 4 4 p q r                             ",
"                    0 s         t u u u u u u u u u u                           ",
"                      v       w 4 4 4 4 4 4 4 4 4 4 4 4                         ",
"                      x       y 4 4 4 4 4 4 4 4 4 4 4 4                         ",
"                    = z A     B 4 4 4 4 4 4 4 4 4 4 4 4                         ",
"                    = C D   E 4 4 u u u u u u u u u u F                         ",
"                    = G H I J 4 4 u u u u u u u u u u K L                       ",
"                      M v N 4 4 O u u u u u u u u u u 4 P                       ",
"                      D Q 4 4 k R u u u u u u u u u u F                         ",
"                        4 4 4 S   u u u u u u u u u u T                         ",
"                      U 4 4 V     u u u u u u u u u u                           ",
"                      k 4 W D     u u u u u u u u u u                           ",
"                      8 4 X     Y Z 4 4 4 4 4 4 4 `  .                          ",
"                        ..+.  A f 4 4 4 4 4 4 4 4 4 k @.                        ",
"                          #.0 7 4 4 4 4 4 4 4 4 4 4 4 $.                        ",
"                        = v %.7 4 4 4 4 4 4 4 4 4 k 4 4 &.                      ",
"                          *.=.7 4 4 4 4 4 4 4 4 4 4 4 4 &.                      ",
"                          x D -.;.4 4 4 4 k 4 4 4 7 K >.                        ",
"                          ,.        4 b '.  ).4 W                               ",
"                          !.0     0 4 7       4 W                               ",
"                          ~.{.      4 3 >   ].3 ^.                              ",
"                          /.z     = u u ^   0 u u (.                            ",
"                            _.  :.u u u <.^ u u u u                             ",
"                            [.  }.u |.u u   1.2.3.4.                            "};
