/* XPM */
static char * wall_xpm[] = {
"40 40 30 1",
" 	c #56AF31",
".	c #89B92D",
"+	c #AEC228",
"@	c #B7C526",
"#	c #81B72E",
"$	c #ACC228",
"%	c #A8C029",
"&	c #99A821",
"*	c #5C7319",
"=	c #234A13",
"-	c #4A6F1B",
";	c #80911D",
">	c #2F5014",
",	c #556B17",
"'	c #99A822",
")	c #607419",
"!	c #B6C527",
"~	c #7AB52E",
"{	c #9B8924",
"]	c #C9420D",
"^	c #879829",
"/	c #BC6017",
"(	c #D40000",
"_	c #A82F09",
":	c #544913",
"<	c #244A13",
"[	c #A7310A",
"}	c #D21402",
"|	c #584512",
"1	c #4F4D14",
"                                        ",
"                                        ",
"                                        ",
"                                        ",
"                                        ",
"                                        ",
"                                        ",
"                             .++.       ",
"                             +@@+       ",
"                           #$+@@+$$#    ",
"                           %@&*=-;@%    ",
"                           @@>===,@@    ",
"                           %@>===,@%    ",
"                           #$')=)'$#    ",
"                             @@@@@      ",
"                             !@@@!      ",
"                             ~!@!~      ",
"                                        ",
"                                        ",
"                                        ",
"                                        ",
"                                        ",
"                                        ",
"                                        ",
"                                        ",
"                                        ",
"                                        ",
"                                        ",
"                         {]]{           ",
"                      ^/(]((]           ",
"                      /((]((]           ",
"                      (((_:<[}{         ",
"                      /((|==|(]         ",
"                      ^/(1==|(]         ",
"                        /_||]]{         ",
"                        (((((           ",
"                        /(((/           ",
"                        ^/(/^           ",
"                                        ",
"                                        "};
